<?xml version="1.0" encoding="UTF-8"?>
<svg id="Vrstva_1" xmlns="http://www.w3.org/2000/svg" xmlns:xlink="http://www.w3.org/1999/xlink" version="1.1" viewBox="0 0 3 4">
  <!-- Generator: Adobe Illustrator 30.7.0, SVG Export Plug-In . SVG Version: 2.1.4 Build 114)  -->
  <defs>
    <style>
      .st0 {
        fill: url(#Nepojmenovaný_přechod);
      }
    </style>
    <linearGradient id="Nepojmenovaný_přechod" data-name="Nepojmenovaný přechod" x1="1.5" y1="-.1" x2="1.5" y2="3.9" gradientTransform="translate(0 3.9) scale(1 -1)" gradientUnits="userSpaceOnUse">
      <stop offset="0" stop-color="#e74e0f"/>
      <stop offset="1" stop-color="#eb6625"/>
    </linearGradient>
  </defs>
  <path class="st0" d="M1.2,4h.1c.3,0,.6-.1.8-.3l.8-.7c.1-.1.2-.3,0-.5-.1-.1-.4-.1-.5,0l-.8.7c-.1,0-.3.1-.4.1-.2,0-.3,0-.4-.2-.2-.2-.2-.5,0-.7l.3-.2.2.2c.1.1.4.1.5,0,.1-.1.2-.3,0-.5l-.2-.2.2-.2c.4-.3.4-.9,0-1.3C1.6,0,1,0,.6.2c-.4.3-.4.9,0,1.3l.2.2-.3.2c-.5.4-.6,1.2,0,1.7.2.2.5.4.9.4ZM1,.7c0,0,.1,0,.2,0,0,0,.2,0,.2,0,.1.1,0,.3,0,.4l-.2.2-.2-.2c-.1,0-.1-.2,0-.3Z"/>
</svg>